<?xml version="1.0" encoding="UTF-8"?>
<svg version="1.1" xmlns="http://www.w3.org/2000/svg" width="512" height="512">
<path d="M0 0 C4.15278234 0.00912709 8.30549964 -0.00495682 12.45826864 -0.01591969 C20.57355475 -0.03362852 28.68869219 -0.02989918 36.80398393 -0.01826912 C43.40435434 -0.00920483 50.00468333 -0.0080237 56.60505819 -0.01236439 C57.54744433 -0.01297732 58.48983047 -0.01359025 59.46077377 -0.01422176 C61.37571153 -0.01550077 63.29064929 -0.01679762 65.20558703 -0.01811212 C83.12685969 -0.02949555 101.04805026 -0.01643942 118.96930945 0.00508934 C134.31874846 0.02295828 149.66806643 0.01985354 165.01750326 0.0014143 C182.87829945 -0.02003204 200.73902384 -0.02839712 218.5998311 -0.01613665 C220.50739621 -0.01486256 222.41496133 -0.01360508 224.32252645 -0.01236439 C225.73005823 -0.01143873 225.73005823 -0.01143873 227.16602498 -0.01049438 C233.75208431 -0.00705276 240.33809777 -0.0128441 246.92414999 -0.0222826 C254.95950795 -0.0335459 262.99470978 -0.03037205 271.03005004 -0.00915962 C275.12326929 0.00129287 279.21622902 0.00557282 283.30944586 -0.00775623 C308.63415885 -0.08317212 330.32846526 1.16891057 350.46379232 18.52289867 C351.12637045 19.04239086 351.78894857 19.56188305 352.47160482 20.09711742 C368.31890559 32.93032373 376.10025135 52.23865967 378.95988607 71.94086742 C379.48924731 76.99267282 379.48924731 76.99267282 379.46379232 79.52289867 C378.46379232 80.52289867 378.46379232 80.52289867 376.51432943 80.63642406 C375.68167562 80.63118725 374.84902182 80.62595043 373.99113607 80.62055492 C373.09201498 80.61733227 372.19289389 80.61410961 371.2665267 80.6107893 C370.32099936 80.60241039 369.37547201 80.59403149 368.40129232 80.58539867 C366.97720053 80.5786311 366.97720053 80.5786311 365.5243392 80.5717268 C363.17076167 80.55989978 360.81730755 80.54341893 358.46379232 80.52289867 C358.22596029 78.90834789 358.22596029 78.90834789 357.98332357 77.26117992 C355.34756304 60.34951786 350.37878458 45.3371 336.66691732 34.08149242 C332.49262901 31.12840548 328.03981327 28.78675217 323.46379232 26.52289867 C322.30879232 25.94539867 321.15379232 25.36789867 319.96379232 24.77289867 C310.73311352 21.47622767 301.41865537 21.23266075 291.70712423 21.26220226 C290.34642208 21.25917565 288.98572163 21.25528363 287.62502414 21.2506097 C283.91435645 21.2403865 280.20378599 21.24249691 276.49311054 21.24679029 C272.48003657 21.24926791 268.46698538 21.24023052 264.45391989 21.2327528 C256.6026884 21.22003231 248.75149117 21.21820881 240.90025111 21.22055306 C234.51523678 21.22233941 228.1302328 21.2205798 221.74521971 21.21632862 C220.37971466 21.21543584 220.37971466 21.21543584 218.98662365 21.21452502 C217.13699076 21.21331321 215.28735787 21.21209907 213.43772499 21.21088264 C196.10886185 21.20001723 178.7800182 21.20216481 161.45115397 21.20826749 C145.61829682 21.21343531 129.78550121 21.20218296 113.95265623 21.18316927 C97.67327592 21.16377007 81.3939247 21.15553855 65.11453277 21.15929252 C55.98381783 21.16120146 46.85315526 21.15874702 37.72244978 21.14457798 C29.94898384 21.13263662 22.1756025 21.13129007 14.40213533 21.14336815 C10.44087326 21.14923765 6.47976574 21.15041008 2.51851416 21.13836575 C-1.11672537 21.12744169 -4.75168253 21.13068675 -8.38690921 21.14462743 C-10.30568679 21.14848986 -12.22447723 21.13778078 -14.14322454 21.12633055 C-32.64892688 21.24025574 -47.81233908 26.63469367 -61.39948893 39.25336742 C-74.09528283 52.45586707 -77.0131273 69.96963399 -76.9171586 87.59563732 C-76.9206255 88.95409283 -76.92539691 90.31254551 -76.93134034 91.67099243 C-76.94373875 95.36159861 -76.93773158 99.05196883 -76.92838168 102.74257529 C-76.92154512 106.73926055 -76.93209511 110.73590751 -76.94032145 114.73258495 C-76.95361256 122.54565958 -76.95080164 130.3586474 -76.94208352 138.17172533 C-76.93528862 144.52615158 -76.93439804 150.88055364 -76.93765497 157.23498249 C-76.93811467 158.14184864 -76.93857437 159.04871478 -76.939048 159.98306172 C-76.94000725 161.82576728 -76.94097989 163.66847283 -76.94196577 165.51117838 C-76.95050626 182.76236398 -76.94070689 200.01350164 -76.92456467 217.26467938 C-76.91116499 232.04193859 -76.91348932 246.81912707 -76.92732096 261.596385 C-76.94340445 278.78730639 -76.94968003 295.97818583 -76.94048417 313.1691137 C-76.9395286 315.00507549 -76.93858548 316.84103729 -76.93765497 318.67699909 C-76.93719215 319.58015086 -76.93672932 320.48330263 -76.93625247 321.41382263 C-76.93367071 327.75435969 -76.938016 334.09486996 -76.94509363 340.43540287 C-76.95353977 348.1714438 -76.95116351 355.9073935 -76.9352514 363.64342409 C-76.92741 367.58457425 -76.92420578 371.52557276 -76.93419886 375.46672153 C-76.94323303 379.08463 -76.93807197 382.70224828 -76.9222662 386.32013095 C-76.91740363 388.22708568 -76.9270363 390.13406107 -76.93743789 392.04099363 C-76.81479833 410.33946453 -72.40055826 426.62290768 -59.32917643 440.05024242 C-47.99226205 450.0869792 -33.84565521 455.63528558 -18.68329477 455.65432644 C-16.9540452 455.66008816 -16.9540452 455.66008816 -15.1898613 455.66596627 C-13.30438198 455.66466655 -13.30438198 455.66466655 -11.38081217 455.66334057 C-10.02442656 455.66592615 -8.66804171 455.66893985 -7.31165791 455.67234397 C-3.58971939 455.68039484 0.13219981 455.68220248 3.854146 455.68294144 C7.870711 455.68479537 11.88726605 455.69234451 15.90382528 455.69907665 C24.68512031 455.7126478 33.46641076 455.71868304 42.24771452 455.72308731 C47.73447024 455.72585229 53.2212242 455.73009016 58.70797873 455.73459148 C73.90904521 455.7467835 89.11011028 455.75708234 104.31118155 455.76046658 C105.77005022 455.76079592 105.77005022 455.76079592 107.25839099 455.76113193 C108.7206927 455.76145934 108.7206927 455.76145934 110.21253586 455.76179338 C112.18788958 455.76223684 114.16324329 455.7626834 116.13859701 455.76313305 C117.60835329 455.76346519 117.60835329 455.76346519 119.10780162 455.76380405 C134.97330596 455.76774936 150.83876429 455.78519553 166.70425087 455.80849257 C183.00606914 455.83223637 199.30786437 455.84466984 215.6097002 455.84583449 C224.75726181 455.84674965 233.9047635 455.85246162 243.05230856 455.87065411 C250.84418883 455.88609614 258.63599066 455.8911515 266.42788333 455.882916 C270.3992411 455.87902373 274.37044113 455.87986896 278.34177923 455.89397335 C281.98646357 455.90679848 285.63087303 455.90544023 289.27555746 455.89338264 C291.19954901 455.89052924 293.1235457 455.90229591 295.0474987 455.9148047 C312.91667661 455.81447617 328.338556 450.94174207 341.46379232 438.52289867 C353.03114601 426.02925299 357.60082412 410.6881729 357.62201071 393.93648815 C357.62694869 393.0974625 357.63188666 392.25843684 357.63697428 391.39398617 C357.65227151 388.59654548 357.66068871 385.79912761 357.66911459 383.00165844 C357.67869923 380.99079725 357.68870966 378.97993805 357.69911337 376.96908092 C357.72610497 371.51926879 357.74714559 366.06944804 357.76711535 360.61960626 C357.78901039 354.92076414 357.81638185 349.22194839 357.8431716 343.52312756 C357.89305094 332.73567147 357.93800741 321.94820072 357.98119396 311.160716 C358.03060702 298.87781951 358.08551005 286.59494948 358.14087355 274.3120786 C358.25462055 249.04904314 358.36128069 223.785982 358.46379232 198.52289867 C365.39379232 198.52289867 372.32379232 198.52289867 379.46379232 198.52289867 C379.51018074 224.45370507 379.54582783 250.38450139 379.56741667 276.315341 C379.5777092 288.35670927 379.5917307 300.39805121 379.61467123 312.43940258 C379.6346672 322.9402215 379.64752345 333.44102134 379.65196931 343.94185877 C379.65456621 349.49687564 379.66062753 355.05183796 379.67525244 360.60683727 C379.68893462 365.84674017 379.69299369 371.08656657 379.69000769 376.32648563 C379.69055313 378.23871242 379.69446669 380.15094205 379.70220327 382.06315327 C379.78684032 404.08226642 377.86178749 423.5712722 365.46379232 442.52289867 C364.72709311 443.6598518 364.72709311 443.6598518 363.97551107 444.81977367 C362.87755891 446.43917215 361.68176893 447.99172809 360.46379232 449.52289867 C359.80379232 449.52289867 359.14379232 449.52289867 358.46379232 449.52289867 C358.09060873 450.39494946 358.09060873 450.39494946 357.70988607 451.28461742 C350.01410776 465.10806875 331.25964779 471.123699 317.09042597 475.585042 C310.99142349 477.07217165 304.7837038 476.80513576 298.54312277 476.79032421 C297.12797493 476.79406448 295.71282916 476.7986675 294.29768664 476.80405486 C290.42255538 476.81625417 286.54751066 476.81602801 282.67236459 476.81366611 C278.48743501 476.81325715 274.30253289 476.82430474 270.11761618 476.83378124 C261.92273759 476.85037641 253.72788777 476.85589016 245.53299379 476.857006 C238.86807232 476.85795737 232.20316033 476.86207214 225.53824186 476.86840725 C206.62537742 476.88601721 187.71253564 476.89524674 168.79966294 476.8937463 C167.27106934 476.89362643 167.27106934 476.89362643 165.71159506 476.89350414 C164.69128225 476.89342238 163.67096943 476.89334062 162.61973805 476.89325638 C146.09543276 476.89244401 129.57121874 476.91156998 113.04693984 476.93978088 C96.06365128 476.96854559 79.08040717 476.98231913 62.09709364 476.98059332 C52.56889607 476.97993056 43.04079412 476.98537262 33.51261854 477.00694942 C25.39763635 477.02520868 17.28279312 477.0294699 9.16779923 477.01593058 C5.03221889 477.0094242 0.89690476 477.00919862 -3.23864985 477.02663708 C-7.03449487 477.04247747 -10.82986506 477.03939397 -14.62569927 477.02206881 C-16.62839175 477.01759452 -18.6310996 477.03256985 -20.63373333 477.0485481 C-32.6226418 476.95840155 -44.18745542 474.42452573 -54.84870768 468.77289867 C-55.84342081 468.25965038 -55.84342081 468.25965038 -56.85822916 467.73603344 C-62.64843001 464.65173149 -67.69616935 460.95810108 -72.53620768 456.52289867 C-73.1678483 455.95957836 -73.79948893 455.39625805 -74.45027018 454.81586742 C-90.21749835 439.98633784 -97.97423791 418.75002576 -98.63031864 397.47047019 C-98.67041695 393.9719316 -98.67910196 390.4746404 -98.67664957 386.97587109 C-98.67923847 385.62570824 -98.68225307 384.27554616 -98.68565297 382.92538512 C-98.69366446 379.23914832 -98.69550925 375.55293105 -98.69625044 371.86668658 C-98.69811123 367.88151043 -98.70566357 363.89634418 -98.71238565 359.91117382 C-98.72592709 351.20849128 -98.73198694 342.50581337 -98.73639631 333.80312204 C-98.73916543 328.36256183 -98.74340395 322.92200338 -98.74790049 317.48144436 C-98.7600869 302.39860108 -98.77038796 287.3157592 -98.77377558 272.23291111 C-98.77399514 271.26891082 -98.77421471 270.30491053 -98.77444093 269.31169812 C-98.77465921 268.34548353 -98.77487748 267.37926894 -98.77510238 266.38377512 C-98.77554583 264.42608062 -98.7759924 262.46838613 -98.77644205 260.51069164 C-98.77666348 259.53962198 -98.77688491 258.56855232 -98.77711305 257.5680563 C-98.78105951 241.83995427 -98.79851173 226.11189862 -98.82180157 210.3838145 C-98.8455559 194.21068134 -98.85797926 178.03757141 -98.8591435 161.86442053 C-98.86005788 152.79398451 -98.86575051 143.72360895 -98.88396311 134.65318966 C-98.89941918 126.9288033 -98.90445218 119.20449611 -98.89622501 111.48009722 C-98.89233812 107.54491807 -98.89315124 103.60989809 -98.90728235 99.67473888 C-99.03386665 62.27207219 -99.03386665 62.27207219 -92.28620768 48.14789867 C-91.98247232 47.48709301 -91.67873697 46.82628735 -91.36579752 46.14545727 C-83.66560858 29.89921025 -70.81042156 16.56695948 -54.91120768 8.27289867 C-54.32138102 7.95562817 -53.73155436 7.63835766 -53.12385416 7.31147289 C-36.33679384 -1.00016384 -18.21370266 -0.05931065 0 0 Z " fill="#000000" transform="translate(115.53620767593384,17.47710132598877)"/>
<path d="M0 0 C52.47 0 104.94 0 159 0 C159 6.6 159 13.2 159 20 C106.53 20 54.06 20 0 20 C0 13.4 0 6.8 0 0 Z " fill="#000000" transform="translate(256,236)"/>
<path d="M0 0 C52.47 0 104.94 0 159 0 C159 6.6 159 13.2 159 20 C106.53 20 54.06 20 0 20 C0 13.4 0 6.8 0 0 Z " fill="#000000" transform="translate(256,117)"/>
<path d="M0 0 C2.93230193 1.32120828 4.98664899 2.74638197 7.234375 5.0390625 C7.80800781 5.61914062 8.38164062 6.19921875 8.97265625 6.796875 C9.55917969 7.40015625 10.14570313 8.0034375 10.75 8.625 C11.35199219 9.23601562 11.95398438 9.84703125 12.57421875 10.4765625 C14.05405305 11.97988624 15.52764676 13.48934856 17 15 C15.44063866 18.9073652 13.00570768 20.99497724 9.875 23.75 C1.79079359 30.99366863 -5.79470405 38.73958888 -13.42041016 46.45800781 C-18.13118326 51.21409871 -22.87547198 55.84664331 -27.96948242 60.1965332 C-32.33659998 64.07532332 -36.39086792 68.28954618 -40.5 72.4375 C-41.4178125 73.35982422 -42.335625 74.28214844 -43.28125 75.23242188 C-45.52315055 77.48599899 -47.762666 79.74189075 -50 82 C-53.87949716 80.20467891 -56.26961294 77.89932945 -59.25 74.8125 C-62.35614413 71.60311698 -65.47453811 68.55088795 -68.859375 65.63671875 C-73.83578838 61.33392457 -78.39629222 56.65456145 -83 51.9609375 C-86.95186212 47.96276449 -90.98874214 44.20844271 -95.3359375 40.640625 C-97 39 -97 39 -99 35 C-94.05 30.05 -89.1 25.1 -84 20 C-79.93031956 22.03484022 -77.30601153 24.42789943 -74.1875 27.625 C-73.65342529 28.16552002 -73.11935059 28.70604004 -72.5690918 29.26293945 C-69.1517478 32.74669001 -65.88883953 36.32632684 -62.734375 40.05078125 C-59.89747392 43.23910026 -56.80272544 46.16566878 -53.72265625 49.1171875 C-52 51 -52 51 -52 53 C-48.30423128 49.98304595 -44.92012435 47.02776481 -41.84765625 43.375 C-36.88560728 37.63009549 -31.43417246 32.38781902 -26.02734375 27.06640625 C-21.71539472 22.79598482 -17.58290048 18.46199787 -13.63037109 13.85742188 C-11.07022071 10.94073662 -8.32803249 8.22042343 -5.5625 5.5 C-5.02173828 4.96375 -4.48097656 4.4275 -3.92382812 3.875 C-2.61823383 2.58095964 -1.30947004 1.29011826 0 0 Z " fill="#000000" transform="translate(188,208)"/>
<path d="M0 0 C2.93230193 1.32120828 4.98664899 2.74638197 7.234375 5.0390625 C7.80800781 5.61914062 8.38164062 6.19921875 8.97265625 6.796875 C9.55917969 7.40015625 10.14570313 8.0034375 10.75 8.625 C11.35199219 9.23601562 11.95398438 9.84703125 12.57421875 10.4765625 C14.05405305 11.97988624 15.52764676 13.48934856 17 15 C15.42703332 18.99362613 12.82488813 21.17707166 9.640625 23.984375 C5.25956849 27.90393565 0.99989534 31.90492073 -3.140625 36.078125 C-3.89611633 36.83857117 -3.89611633 36.83857117 -4.66687012 37.61437988 C-6.19662798 39.15757703 -7.72376889 40.70331525 -9.25 42.25 C-14.9976805 48.07364104 -20.71264688 53.85025796 -26.94042969 59.16748047 C-31.4901058 63.215592 -35.71480166 67.61337202 -40 71.9375 C-40.97502386 72.9175531 -41.9502828 73.8973724 -42.92578125 74.87695312 C-45.28616618 77.24902313 -47.64416905 79.6234086 -50 82 C-54.02654194 80.1527997 -56.71593076 77.47493371 -59.75 74.3125 C-63.01791838 70.92787025 -66.32329645 67.67675381 -69.890625 64.60546875 C-74.85808288 60.31490695 -79.40666014 55.64399102 -84 50.9609375 C-87.99690848 46.91719024 -92.07181208 43.17387197 -96.53125 39.640625 C-98 38 -98 38 -98 34 C-96.71484375 32.26074219 -96.71484375 32.26074219 -94.9375 30.546875 C-94.30585937 29.928125 -93.67421875 29.309375 -93.0234375 28.671875 C-92.35570313 28.03765625 -91.68796875 27.4034375 -91 26.75 C-90.33226563 26.1003125 -89.66453125 25.450625 -88.9765625 24.78125 C-87.32631982 23.17815711 -85.66748209 21.58512166 -84 20 C-79.98856564 21.84730761 -77.24094209 24.49460867 -74.1875 27.625 C-73.65342529 28.16552002 -73.11935059 28.70604004 -72.5690918 29.26293945 C-69.1517478 32.74669001 -65.88883953 36.32632684 -62.734375 40.05078125 C-59.89747392 43.23910026 -56.80272544 46.16566878 -53.72265625 49.1171875 C-52 51 -52 51 -52 53 C-48.60236975 50.34819102 -45.6573958 47.70370416 -42.87890625 44.40625 C-37.90428288 38.65259548 -32.44478661 33.39826549 -27.02734375 28.06640625 C-22.72556723 23.80605936 -18.60472894 19.48227205 -14.66162109 14.88867188 C-11.93331901 11.78756331 -9.00384381 8.89744315 -6.0625 6 C-5.17981445 5.12408203 -5.17981445 5.12408203 -4.27929688 4.23046875 C-2.85520207 2.81795195 -1.4279475 1.4086219 0 0 Z " fill="#000000" transform="translate(188,89)"/>
<path d="M0 0 C6.03331362 4.98404168 11.5184171 10.41915303 17 16 C13.75485198 20.01373571 10.45152438 23.56884573 6.5625 26.96484375 C0.24299626 32.60045599 -5.67794465 38.60307165 -11.625 44.625 C-23.78632608 56.93843319 -23.78632608 56.93843319 -30.05615234 62.28320312 C-34.05108136 65.81150517 -37.75260365 69.65043252 -41.5 73.4375 C-42.32242188 74.26443359 -43.14484375 75.09136719 -43.9921875 75.94335938 C-45.99712113 77.95994959 -47.99966253 79.97885236 -50 82 C-53.66434951 80.28974534 -55.9345589 78.24002076 -58.75 75.3125 C-61.67022545 72.28394361 -64.64192186 69.41112458 -67.828125 66.66796875 C-72.81351145 62.35297015 -77.38592734 57.66512876 -82 52.9609375 C-85.94055413 48.974205 -89.97487419 45.18372813 -94.23828125 41.54296875 C-95.89815811 40.08919634 -97.45933981 38.57858414 -99 37 C-97.67879172 34.06769807 -96.25361803 32.01335101 -93.9609375 29.765625 C-93.38085938 29.19199219 -92.80078125 28.61835938 -92.203125 28.02734375 C-91.59984375 27.44082031 -90.9965625 26.85429687 -90.375 26.25 C-89.76398438 25.64800781 -89.15296875 25.04601562 -88.5234375 24.42578125 C-87.02011376 22.94594695 -85.51065144 21.47235324 -84 20 C-80.08790692 21.59415503 -77.62781914 24.13893332 -74.6875 27.125 C-74.20039551 27.6185498 -73.71329102 28.11209961 -73.21142578 28.62060547 C-69.92546018 31.97627667 -66.80857299 35.44089969 -63.765625 39.015625 C-60.93344484 42.19869474 -57.87307151 45.14721518 -54.8203125 48.1171875 C-53 50 -53 50 -52 52 C-49.13543747 50.71225383 -47.20510789 49.41833237 -45.109375 47.0859375 C-44.57256104 46.49756104 -44.03574707 45.90918457 -43.48266602 45.30297852 C-42.62499634 44.34862915 -42.62499634 44.34862915 -41.75 43.375 C-35.87112582 36.94348496 -29.81508749 30.73383457 -23.59472656 24.63232422 C-19.77011229 20.85774979 -16.17566517 16.96378749 -12.66723633 12.89428711 C-10.24671049 10.14412457 -7.67544769 7.56596523 -5.0625 5 C-4.56943359 4.51144531 -4.07636719 4.02289063 -3.56835938 3.51953125 C-2.38126771 2.34396475 -1.19099502 1.17161174 0 0 Z " fill="#000000" transform="translate(188,327)"/>
<path d="M0 0 C26.4 0 52.8 0 80 0 C80 6.93 80 13.86 80 21 C53.6 21 27.2 21 0 21 C0 14.07 0 7.14 0 0 Z " fill="#000000" transform="translate(256,355)"/>
<path d="M0 0 C6.93 0 13.86 0 21 0 C21 13.53 21 27.06 21 41 C14.07 41 7.14 41 0 41 C0 27.47 0 13.94 0 0 Z " fill="#000000" transform="translate(474,136)"/>
<path d="M0 0 C13.2 0 26.4 0 40 0 C40 6.93 40 13.86 40 21 C26.8 21 13.6 21 0 21 C0 14.07 0 7.14 0 0 Z " fill="#000000" transform="translate(375,355)"/>
</svg>
