<?xml version="1.0" encoding="UTF-8"?>
<svg version="1.1" xmlns="http://www.w3.org/2000/svg" width="500" height="500">
<path d="M0 0 C7.68719505 7.05810324 13.30068974 16.74965262 14.14569664 27.23347664 C14.24365427 31.32296324 14.24666416 35.40235622 14.21557617 39.49243164 C14.21472874 41.06024153 14.21520731 42.62805261 14.21690369 44.19586182 C14.21776052 48.4287707 14.20018558 52.66142187 14.17918181 56.89427114 C14.16036276 61.32650888 14.15866046 65.75875325 14.15510559 70.19102478 C14.14580044 78.57374117 14.12120746 86.95633947 14.09105712 95.33900398 C14.05746537 104.88677735 14.04101512 114.43455651 14.02597082 123.98237431 C13.99465648 143.61331532 13.94192587 163.2441502 13.875 182.875 C14.92547012 182.84499342 15.97594025 182.81498684 17.0582428 182.78407097 C21.02043723 182.67132762 24.98268972 182.56074507 28.94496155 182.45075798 C30.64771611 182.40320276 32.35045521 182.35509042 34.05317688 182.30637169 C47.0522415 181.93498094 60.02793655 181.7056336 73.03271484 181.95214844 C75.96598502 182.00153179 78.89840584 182.01589824 81.83203125 182.03125 C96.37752779 182.220938 109.10249678 184.06169184 119.875 194.875 C129.62318267 206.05059514 133.64661794 217.90671315 132.69140625 232.72265625 C131.11214616 244.0379734 125.43344659 254.43854516 116.66015625 261.7109375 C107.6983936 268.42164128 99.58663955 271.04399936 88.5078125 271.47265625 C87.56465179 271.51208847 86.62149109 271.55152069 85.64974976 271.59214783 C72.31403826 272.08400777 58.96598693 271.98665724 45.62353516 271.94366455 C42.02897756 271.93322967 38.43441229 271.92882485 34.83984375 271.92382812 C27.85154461 271.91326751 20.86327533 271.89631957 13.875 271.875 C13.88191345 273.07984228 13.88191345 273.07984228 13.88896656 274.30902481 C13.99958907 293.89101522 14.08222609 313.47294292 14.13406086 333.0551796 C14.15979676 342.52518211 14.19485862 351.9949755 14.25219727 361.46484375 C14.302174 369.72280771 14.33432453 377.98062015 14.34544247 386.23873115 C14.35193719 390.60777285 14.36710421 394.97638125 14.40365028 399.34528351 C14.43783594 403.46577538 14.44800801 407.58565952 14.44053841 411.70627975 C14.44190296 413.21062662 14.45170056 414.71499588 14.47102737 416.21921921 C14.63177927 429.38749263 11.70704407 440.48900641 2.5625 450.375 C1.2321875 451.6125 1.2321875 451.6125 -0.125 452.875 C-0.60453125 453.3596875 -1.0840625 453.844375 -1.578125 454.34375 C-9.80926656 462.17532158 -20.78776978 465.22147215 -31.9609375 465.02734375 C-45.07022459 464.1044878 -55.88256224 458.69141281 -64.8125 449.125 C-74.2927097 437.78337926 -75.42601848 425.99694589 -75.35205078 411.73828125 C-75.35148595 410.21002713 -75.35180464 408.68177248 -75.35293579 407.15351868 C-75.35350749 403.02391074 -75.34178294 398.89441998 -75.32778788 394.76483917 C-75.31524989 390.4420278 -75.3141076 386.11921347 -75.31173706 381.79638672 C-75.30553129 373.6190805 -75.28913273 365.44182803 -75.26903808 357.26454544 C-75.24665093 347.9513645 -75.23567858 338.63818095 -75.22564721 329.32497978 C-75.20476568 310.1749561 -75.16960731 291.02498238 -75.125 271.875 C-75.94137939 271.87722061 -76.75775879 271.87944122 -77.59887695 271.88172913 C-85.36401659 271.90192415 -93.12914315 271.91707079 -100.89430237 271.92681217 C-104.88462461 271.93198895 -108.87492481 271.93898965 -112.86523438 271.95043945 C-116.72968761 271.96145634 -120.5941199 271.96731581 -124.45858765 271.96987724 C-125.91906056 271.97169816 -127.37953257 271.975252 -128.83999634 271.98073006 C-166.75086363 272.11702815 -166.75086363 272.11702815 -181.3203125 257.703125 C-185.56145783 253.16463 -188.85891452 248.67483264 -191.125 242.875 C-191.47949219 242.00488281 -191.83398438 241.13476562 -192.19921875 240.23828125 C-195.07528151 229.78980007 -194.45528779 217.02586972 -189.609375 207.34765625 C-187.356265 203.59444933 -185.01160521 200.16887377 -182.125 196.875 C-181.62484375 196.27042969 -181.1246875 195.66585937 -180.609375 195.04296875 C-174.24945596 187.95752497 -165.10251063 183.3271291 -155.57943726 182.71005249 C-154.67714386 182.691492 -153.77485046 182.67293152 -152.84521484 182.65380859 C-151.81157806 182.63063568 -150.77794128 182.60746277 -149.71298218 182.58358765 C-148.59855743 182.5637381 -147.48413269 182.54388855 -146.3359375 182.5234375 C-144.57813461 182.48870834 -144.57813461 182.48870834 -142.78482056 182.45327759 C-140.29164941 182.4056308 -137.79843115 182.36039765 -135.30517578 182.31738281 C-131.58993869 182.25159265 -127.8751227 182.1732039 -124.16015625 182.09375 C-121.71876431 182.04869712 -119.27735817 182.00440585 -116.8359375 181.9609375 C-115.23110001 181.92509048 -115.23110001 181.92509048 -113.59384155 181.88851929 C-100.7617508 181.69227054 -87.94341478 182.34309058 -75.125 182.875 C-75.12868717 182.08300107 -75.13237434 181.29100214 -75.13617325 180.47500324 C-75.22470189 161.15968703 -75.29079577 141.84441159 -75.33224869 122.52893543 C-75.35283039 113.18791711 -75.38086654 103.84703462 -75.42675781 94.50610352 C-75.46676057 86.35983184 -75.49246469 78.21365861 -75.50135398 70.06729144 C-75.50654609 65.75808848 -75.51865666 61.449167 -75.54792023 57.1400547 C-75.57530236 53.07460785 -75.58339958 49.00955536 -75.57743073 44.94402504 C-75.57852087 43.46107329 -75.58633809 41.97810676 -75.6018219 40.49523544 C-75.74126349 26.43787544 -73.26562796 14.85927904 -64.125 3.875 C-63.59003906 3.22789063 -63.05507812 2.58078125 -62.50390625 1.9140625 C-45.83226544 -16.39675642 -18.28520534 -14.67027991 0 0 Z " fill="#323232" transform="translate(285.125,19.125)"/>
</svg>
